# xmcd
#
# Track frame offsets: 
#        150
#        13681
#        24611
#        43988
#        58859
#        73530
#        88530
#        99652
#        108813
#        116608
#        139997
#        160857
#        176302
#
# Disc length: 2489 seconds
#
# Revision: 0
# Processed by: cddbd v1.5.2PL0 Copyright (c) Steve Scherf et al.
# Submitted via: ExactAudioCopy v1.0b4
#
DISCID=ac09b70d
DTITLE=John Clifton - Let Yourself Go
DYEAR=2015
DGENRE=Blues
TTITLE0=Let Yourself Go
TTITLE1=The Gamble
TTITLE2=Beer Joint
TTITLE3=Would You Understand
TTITLE4=Big John From Mississippi
TTITLE5=Anytime Is Cool
TTITLE6=Dig Yourself
TTITLE7=Have Your Way Baby
TTITLE8=Buddy Buddy Friends
TTITLE9=Garbage Day
TTITLE10=Tell Me Baby
TTITLE11=Every Time You Come Around
TTITLE12=Big Man In A Little Town
EXTD=
EXTT0=
EXTT1=
EXTT2=
EXTT3=
EXTT4=
EXTT5=
EXTT6=
EXTT7=
EXTT8=
EXTT9=
EXTT10=
EXTT11=
EXTT12=
PLAYORDER=
